<svg width="24" height="24" viewBox="0 0 24 24" fill="none" xmlns="http://www.w3.org/2000/svg">
<circle cx="12" cy="12" r="11" stroke="#B59A5B" stroke-width="2"/>
<path d="M12.8438 17H10.8613V9.60352H12.8438V17ZM10.7451 7.68945C10.7451 7.39323 10.8431 7.14941 11.0391 6.95801C11.2396 6.7666 11.5107 6.6709 11.8525 6.6709C12.1898 6.6709 12.4587 6.7666 12.6592 6.95801C12.8597 7.14941 12.96 7.39323 12.96 7.68945C12.96 7.99023 12.8574 8.23633 12.6523 8.42773C12.4518 8.61914 12.1852 8.71484 11.8525 8.71484C11.5199 8.71484 11.251 8.61914 11.0459 8.42773C10.8454 8.23633 10.7451 7.99023 10.7451 7.68945Z" fill="#B59A5B"/>
</svg>
